name ../Passive_Flexion/flexion_ang.mot
datacolumns   7
datarows 91
range   30.00000000 30.90000000
cursor 1.0 1.0 0.0
keys m_key
wrap
enforce_loops no
enforce_constraints no
calc_derivatives -1.000000
event_color 0.000000 0.000000 0.000000
endheader
            time     knee_angle_r       knee_add_r       knee_rot_r        knee_tx_r        knee_ty_r        knee_tz_r 
     30.00000000     -65.45084972       0.00000000       0.00000000      -0.00600000      -0.45000000       0.00000000 
     30.01000000     -65.37613488       0.00000000       0.00000000      -0.00600000      -0.45000000       0.00000000 
     30.02000000     -65.30138211       0.00000000       0.00000000      -0.00600000      -0.45000000       0.00000000 
     30.03000000     -65.22659158       0.00000000       0.00000000      -0.00600000      -0.45000000       0.00000000 
     30.04000000     -65.15176348       0.00000000       0.00000000      -0.00600000      -0.45000000       0.00000000 
     30.05000000     -65.07689800       0.00000000       0.00000000      -0.00600000      -0.45000000       0.00000000 
     30.06000000     -65.00199531       0.00000000       0.00000000      -0.00600000      -0.45000000       0.00000000 
     30.07000000     -64.92705561       0.00000000       0.00000000      -0.00600000      -0.45000000       0.00000000 
     30.08000000     -64.85207908       0.00000000       0.00000000      -0.00600000      -0.45000000       0.00000000 
     30.09000000     -64.77706590       0.00000000       0.00000000      -0.00600000      -0.45000000       0.00000000 
     30.10000000     -64.70201626       0.00000000       0.00000000      -0.00600000      -0.45000000       0.00000000 
     30.11000000     -64.62693035       0.00000000       0.00000000      -0.00600000      -0.45000000       0.00000000 
     30.12000000     -64.55180834       0.00000000       0.00000000      -0.00600000      -0.45000000       0.00000000 
     30.13000000     -64.47665043       0.00000000       0.00000000      -0.00600000      -0.45000000       0.00000000 
     30.14000000     -64.40145680       0.00000000       0.00000000      -0.00600000      -0.45000000       0.00000000 
     30.15000000     -64.32622764       0.00000000       0.00000000      -0.00600000      -0.45000000       0.00000000 
     30.16000000     -64.25096312       0.00000000       0.00000000      -0.00600000      -0.45000000       0.00000000 
     30.17000000     -64.17566345       0.00000000       0.00000000      -0.00600000      -0.45000000       0.00000000 
     30.18000000     -64.10032880       0.00000000       0.00000000      -0.00600000      -0.45000000       0.00000000 
     30.19000000     -64.02495935       0.00000000       0.00000000      -0.00600000      -0.45000000       0.00000000 
     30.20000000     -63.94955530       0.00000000       0.00000000      -0.00600000      -0.45000000       0.00000000 
     30.21000000     -63.87411683       0.00000000       0.00000000      -0.00600000      -0.45000000       0.00000000 
     30.22000000     -63.79864413       0.00000000       0.00000000      -0.00600000      -0.45000000       0.00000000 
     30.23000000     -63.72313738       0.00000000       0.00000000      -0.00600000      -0.45000000       0.00000000 
     30.24000000     -63.64759678       0.00000000       0.00000000      -0.00600000      -0.45000000       0.00000000 
     30.25000000     -63.57202249       0.00000000       0.00000000      -0.00600000      -0.45000000       0.00000000 
     30.26000000     -63.49641472       0.00000000       0.00000000      -0.00600000      -0.45000000       0.00000000 
     30.27000000     -63.42077365       0.00000000       0.00000000      -0.00600000      -0.45000000       0.00000000 
     30.28000000     -63.34509947       0.00000000       0.00000000      -0.00600000      -0.45000000       0.00000000 
     30.29000000     -63.26939235       0.00000000       0.00000000      -0.00600000      -0.45000000       0.00000000 
     30.30000000     -63.19365250       0.00000000       0.00000000      -0.00600000      -0.45000000       0.00000000 
     30.31000000     -63.11788009       0.00000000       0.00000000      -0.00600000      -0.45000000       0.00000000 
     30.32000000     -63.04207531       0.00000000       0.00000000      -0.00600000      -0.45000000       0.00000000 
     30.33000000     -62.96623836       0.00000000       0.00000000      -0.00600000      -0.45000000       0.00000000 
     30.34000000     -62.89036941       0.00000000       0.00000000      -0.00600000      -0.45000000       0.00000000 
     30.35000000     -62.81446866       0.00000000       0.00000000      -0.00600000      -0.45000000       0.00000000 
     30.36000000     -62.73853628       0.00000000       0.00000000      -0.00600000      -0.45000000       0.00000000 
     30.37000000     -62.66257248       0.00000000       0.00000000      -0.00600000      -0.45000000       0.00000000 
     30.38000000     -62.58657743       0.00000000       0.00000000      -0.00600000      -0.45000000       0.00000000 
     30.39000000     -62.51055133       0.00000000       0.00000000      -0.00600000      -0.45000000       0.00000000 
     30.40000000     -62.43449436       0.00000000       0.00000000      -0.00600000      -0.45000000       0.00000000 
     30.41000000     -62.35840671       0.00000000       0.00000000      -0.00600000      -0.45000000       0.00000000 
     30.42000000     -62.28228856       0.00000000       0.00000000      -0.00600000      -0.45000000       0.00000000 
     30.43000000     -62.20614011       0.00000000       0.00000000      -0.00600000      -0.45000000       0.00000000 
     30.44000000     -62.12996154       0.00000000       0.00000000      -0.00600000      -0.45000000       0.00000000 
     30.45000000     -62.05375304       0.00000000       0.00000000      -0.00600000      -0.45000000       0.00000000 
     30.46000000     -61.97751480       0.00000000       0.00000000      -0.00600000      -0.45000000       0.00000000 
     30.47000000     -61.90124701       0.00000000       0.00000000      -0.00600000      -0.45000000       0.00000000 
     30.48000000     -61.82494985       0.00000000       0.00000000      -0.00600000      -0.45000000       0.00000000 
     30.49000000     -61.74862352       0.00000000       0.00000000      -0.00600000      -0.45000000       0.00000000 
     30.50000000     -61.67226819       0.00000000       0.00000000      -0.00600000      -0.45000000       0.00000000 
     30.51000000     -61.59588407       0.00000000       0.00000000      -0.00600000      -0.45000000       0.00000000 
     30.52000000     -61.51947133       0.00000000       0.00000000      -0.00600000      -0.45000000       0.00000000 
     30.53000000     -61.44303018       0.00000000       0.00000000      -0.00600000      -0.45000000       0.00000000 
     30.54000000     -61.36656078       0.00000000       0.00000000      -0.00600000      -0.45000000       0.00000000 
     30.55000000     -61.29006334       0.00000000       0.00000000      -0.00600000      -0.45000000       0.00000000 
     30.56000000     -61.21353805       0.00000000       0.00000000      -0.00600000      -0.45000000       0.00000000 
     30.57000000     -61.13698508       0.00000000       0.00000000      -0.00600000      -0.45000000       0.00000000 
     30.58000000     -61.06040464       0.00000000       0.00000000      -0.00600000      -0.45000000       0.00000000 
     30.59000000     -60.98379691       0.00000000       0.00000000      -0.00600000      -0.45000000       0.00000000 
     30.60000000     -60.90716207       0.00000000       0.00000000      -0.00600000      -0.45000000       0.00000000 
     30.61000000     -60.83050032       0.00000000       0.00000000      -0.00600000      -0.45000000       0.00000000 
     30.62000000     -60.75381185       0.00000000       0.00000000      -0.00600000      -0.45000000       0.00000000 
     30.63000000     -60.67709685       0.00000000       0.00000000      -0.00600000      -0.45000000       0.00000000 
     30.64000000     -60.60035550       0.00000000       0.00000000      -0.00600000      -0.45000000       0.00000000 
     30.65000000     -60.52358799       0.00000000       0.00000000      -0.00600000      -0.45000000       0.00000000 
     30.66000000     -60.44679452       0.00000000       0.00000000      -0.00600000      -0.45000000       0.00000000 
     30.67000000     -60.36997527       0.00000000       0.00000000      -0.00600000      -0.45000000       0.00000000 
     30.68000000     -60.29313044       0.00000000       0.00000000      -0.00600000      -0.45000000       0.00000000 
     30.69000000     -60.21626021       0.00000000       0.00000000      -0.00600000      -0.45000000       0.00000000 
     30.70000000     -60.13936477       0.00000000       0.00000000      -0.00600000      -0.45000000       0.00000000 
     30.71000000     -60.06244431       0.00000000       0.00000000      -0.00600000      -0.45000000       0.00000000 
     30.72000000     -59.98549903       0.00000000       0.00000000      -0.00600000      -0.45000000       0.00000000 
     30.73000000     -59.90852910       0.00000000       0.00000000      -0.00600000      -0.45000000       0.00000000 
     30.74000000     -59.83153473       0.00000000       0.00000000      -0.00600000      -0.45000000       0.00000000 
     30.75000000     -59.75451610       0.00000000       0.00000000      -0.00600000      -0.45000000       0.00000000 
     30.76000000     -59.67747340       0.00000000       0.00000000      -0.00600000      -0.45000000       0.00000000 
     30.77000000     -59.60040683       0.00000000       0.00000000      -0.00600000      -0.45000000       0.00000000 
     30.78000000     -59.52331656       0.00000000       0.00000000      -0.00600000      -0.45000000       0.00000000 
     30.79000000     -59.44620280       0.00000000       0.00000000      -0.00600000      -0.45000000       0.00000000 
     30.80000000     -59.36906573       0.00000000       0.00000000      -0.00600000      -0.45000000       0.00000000 
     30.81000000     -59.29190554       0.00000000       0.00000000      -0.00600000      -0.45000000       0.00000000 
     30.82000000     -59.21472243       0.00000000       0.00000000      -0.00600000      -0.45000000       0.00000000 
     30.83000000     -59.13751658       0.00000000       0.00000000      -0.00600000      -0.45000000       0.00000000 
     30.84000000     -59.06028818       0.00000000       0.00000000      -0.00600000      -0.45000000       0.00000000 
     30.85000000     -58.98303743       0.00000000       0.00000000      -0.00600000      -0.45000000       0.00000000 
     30.86000000     -58.90576451       0.00000000       0.00000000      -0.00600000      -0.45000000       0.00000000 
     30.87000000     -58.82846962       0.00000000       0.00000000      -0.00600000      -0.45000000       0.00000000 
     30.88000000     -58.75115295       0.00000000       0.00000000      -0.00600000      -0.45000000       0.00000000 
     30.89000000     -58.67381468       0.00000000       0.00000000      -0.00600000      -0.45000000       0.00000000 
     30.90000000     -58.59645501       0.00000000       0.00000000      -0.00600000      -0.45000000       0.00000000 
